<svg width="20" height="20" viewBox="0 0 30 30" fill="none" xmlns="http://www.w3.org/2000/svg">
<path id="Vector" d="M21.0884 8.9116C21.0884 10.5263 20.447 12.075 19.3051 13.2167C18.1634 14.3586 16.6148 15 15 15C13.3852 15 11.8367 14.3586 10.6949 13.2167C9.55308 12.075 8.91162 10.5263 8.91162 8.9116M2.26495 8.00044L1.19948 20.7861C0.970582 23.5327 0.856135 24.9061 1.32042 25.9655C1.72834 26.8963 2.43513 27.6645 3.32883 28.1482C4.34604 28.6989 5.72413 28.6989 8.48032 28.6989H21.5198C24.2759 28.6989 25.654 28.6989 26.6712 28.1482C27.565 27.6645 28.2717 26.8963 28.6796 25.9655C29.1439 24.9061 29.0294 23.5327 28.8006 20.7861L27.7351 8.00044C27.5382 5.63718 27.4397 4.45554 26.9164 3.5612C26.4555 2.77364 25.7692 2.14221 24.9462 1.74836C24.0115 1.30109 22.8258 1.30109 20.4543 1.30109H9.54579C7.17433 1.30109 5.98861 1.30109 5.05387 1.74835C4.23077 2.14221 3.54454 2.77364 3.08368 3.5612C2.56035 4.45554 2.46187 5.63718 2.26495 8.00044Z" stroke="black" stroke-width="1.5" stroke-linecap="round" stroke-linejoin="round"/>
</svg>
