<?xml version="1.0" encoding="UTF-8"?>
<svg id="_圖層_2" data-name="圖層 2" xmlns="http://www.w3.org/2000/svg" xmlns:xlink="http://www.w3.org/1999/xlink" viewBox="0 0 20.21 22.63">
  <defs>
    <style>
      .cls-1 {
        fill: url(#_未命名漸層-3);
        stroke: url(#_未命名漸層-4);
      }

      .cls-2 {
        fill: url(#_未命名漸層);
        stroke: url(#_未命名漸層-2);
      }
    </style>
    <linearGradient id="_未命名漸層" data-name="未命名漸層" x1="10.11" y1="8.92" x2="10.11" y2="19.92" gradientTransform="translate(0 29.95) scale(1 -1)" gradientUnits="userSpaceOnUse">
      <stop offset="0" stop-color="#cf8ffc"/>
      <stop offset=".5" stop-color="#5b35aa"/>
      <stop offset="1" stop-color="#281c72"/>
    </linearGradient>
    <linearGradient id="_未命名漸層-2" data-name="未命名漸層" x1="10.11" x2="10.11" xlink:href="#_未命名漸層"/>
    <linearGradient id="_未命名漸層-3" data-name="未命名漸層" y1="17.73" y2="28.73" xlink:href="#_未命名漸層"/>
    <linearGradient id="_未命名漸層-4" data-name="未命名漸層" x1="10.11" y1="17.73" x2="10.11" y2="28.73" xlink:href="#_未命名漸層"/>
  </defs>
  <g id="_圖層_1-2" data-name="圖層 1">
    <path id="Vector" class="cls-2" d="m1.41,9.91l-.61.26.41.52,8.5,10.66.39.49.39-.49,8.5-10.66.41-.52-.61-.26-.81-.34-.35-.15-.24.3-7.3,9.16L2.81,9.72l-.24-.3-.35.15-.81.34Z"/>
    <path id="Vector-2" data-name="Vector" class="cls-1" d="m1.41,1.09l-.61.26.41.52,8.5,10.66.39.49.39-.49L19,1.86l.41-.52-.61-.26-.81-.34-.35-.15-.24.3-7.3,9.16L2.81.9l-.24-.3-.35.15-.81.34Z"/>
  </g>
</svg>