<svg width="19" height="18" viewBox="0 0 19 18" fill="none" xmlns="http://www.w3.org/2000/svg">
<path d="M4.75012 13.5833H13.7745C14.5661 13.5833 14.9619 13.5833 15.2845 13.4403C15.5689 13.3143 15.8123 13.1111 15.9872 12.8538C16.1857 12.562 16.2565 12.1726 16.3981 11.3937L17.5238 5.20259C17.5728 4.93265 17.5974 4.79768 17.5595 4.69229C17.5263 4.59983 17.4613 4.52209 17.3763 4.47283C17.2794 4.41667 17.1423 4.41667 16.8678 4.41667H3.50012M1 1.08334H2.097C2.29924 1.08334 2.40037 1.08334 2.48215 1.12028C2.55422 1.15284 2.61556 1.20524 2.65896 1.27136C2.7082 1.34638 2.72397 1.44626 2.75552 1.64603L5.07782 16.354C5.10937 16.5538 5.12513 16.6536 5.17438 16.7287C5.21778 16.7948 5.27911 16.8472 5.35118 16.8798C5.43297 16.9167 5.53409 16.9167 5.73633 16.9167H15.1667" stroke="white" stroke-linecap="round" stroke-linejoin="round"/>
</svg>
