<?xml version="1.0" encoding="UTF-8"?>
<svg id="_圖層_1" data-name="圖層 1" xmlns="http://www.w3.org/2000/svg" viewBox="0 0 1688 611.25">
  <defs>
    <style>
      .cls-1 {
        fill: #9b9b9b;
      }

      .cls-1, .cls-2 {
        stroke-width: 0px;
      }

      .cls-2 {
        fill: #fff;
      }

      .cls-3 {
        fill: none;
        stroke: #9b9b9b;
        stroke-miterlimit: 10;
        stroke-width: 3px;
      }
    </style>
  </defs>
  <path class="cls-1" d="m42.91,0C19.2,0,0,19.22,0,42.91v444.74c0,23.69,19.2,42.91,42.91,42.91h487.64V0H42.91Z"/>
  <path class="cls-3" d="m1645.09,76.52h-532.37c-17.25,0-33.86-6.49-46.56-18.2l-47.71-44c-9.97-9.21-23.06-14.32-36.62-14.32h-417.83v530.55h384.08c24.74,0,47.62,13.13,60.1,34.49l9.74,16.68c10.69,18.29,30.28,29.54,51.47,29.54h416.37c15.74,0,30.83-6.22,42-17.31l38.19-37.93c16.43-16.31,38.64-25.47,61.78-25.47h17.36c23.7,0,42.91-19.22,42.91-42.91V119.41c0-23.69-19.2-42.89-42.91-42.89Z"/>
  <g>
    <path class="cls-2" d="m152.18,356.7h-83.75c-2.81,0-5.17-1.94-5.73-4.72-.57-2.81.85-5.54,3.46-6.65l106.47-45.25c1.36-.57,2.93.06,3.51,1.42.58,1.36-.06,2.93-1.41,3.51l-106.47,45.25c-.11.05-.42.18-.32.66.09.44.36.44.49.44h83.75c1.48,0,2.67,1.2,2.67,2.67s-1.2,2.67-2.67,2.67Z"/>
    <path class="cls-2" d="m173.68,305.22c-.19,0-.4-.02-.6-.07-1.44-.33-2.34-1.76-2.01-3.2l19.64-86.34c1.19-4.98,5.01-8.79,9.98-9.96l146.46-34.44c4.42-1.03,9.01.21,12.3,3.33,3.29,3.12,4.77,7.65,3.96,12.11-.26,1.45-1.65,2.4-3.11,2.15-1.45-.26-2.42-1.66-2.15-3.11.49-2.72-.38-5.38-2.38-7.28-2.01-1.9-4.7-2.63-7.4-2l-146.46,34.44c-2.98.7-5.28,2.99-5.99,5.97l-19.63,86.31c-.28,1.24-1.39,2.08-2.61,2.08Z"/>
    <g>
      <path class="cls-2" d="m170.01,352.92c-1.63.01-2.76-.41-3.39-1.27-.63-.9-.58-2.13.13-3.69.87-1.91,2.47-3.38,4.82-4.43,2.3-1.03,5.6-1.78,9.88-2.24,1.36-2.97.73-4.44-1.88-4.42-1.44.01-3.18.44-5.23,1.3-.91.41-1.41.27-1.5-.45-.05-.34-.01-.62.11-.84.12-.22.4-.42.84-.62,2.84-1.23,5.32-1.85,7.44-1.86,2.24-.02,3.61.63,4.12,1.95.46,1.22.17,2.97-.87,5.25l-2.49,5.42-1.94,4.22c-.37.8-1.01,1.2-1.91,1.21-.84,0-1.13-.36-.89-1.09l.32-1.01h-.1c-2.97,1.71-5.45,2.56-7.45,2.58Zm2-2.38c.88,0,1.84-.2,2.89-.6.92-.37,2.05-.96,3.39-1.77l1.13-2.47,1.13-2.46c-3.26.37-5.73.93-7.42,1.67-1.57.7-2.64,1.65-3.18,2.84-.44.95-.44,1.67-.02,2.17.38.43,1.08.64,2.08.63Z"/>
      <path class="cls-2" d="m201.12,359.69c-1.07,0-1.39-.48-.94-1.45l5.08-11.07,5.19-11.33c.37-.8,1.01-1.2,1.91-1.2.84,0,1.14.36.89,1.09l-.27.91h.1c2.92-1.66,5.31-2.5,7.17-2.51,2.4-.02,3.9.79,4.5,2.43.56,1.57.21,3.74-1.07,6.51-1.33,2.9-3.23,5.25-5.69,7.03-2.33,1.68-4.63,2.52-6.92,2.54-1.7.01-3.14-.65-4.3-2.01l-1.35,3.08-2.07,4.51c-.45.97-1.19,1.46-2.24,1.47Zm10.56-9.52c1.61-.01,3.2-.64,4.77-1.88,1.62-1.31,2.92-3.03,3.91-5.17,1.99-4.35,1.32-6.51-2.01-6.49-1.51.01-3.59.83-6.22,2.47l-2.13,4.64-2.11,4.61c1,1.23,2.26,1.83,3.8,1.82Z"/>
      <path class="cls-2" d="m247.09,352.38c-3.61.03-4.52-1.92-2.73-5.83l4.48-9.77h-1.64c-.79.02-1.02-.36-.67-1.12s.91-1.15,1.69-1.18l1.86-.11,2-3.77c.43-.78,1.07-1.17,1.94-1.18.91,0,1.18.4.8,1.22l-1.7,3.7,3.84-.03c.86,0,1.11.39.74,1.19-.37.8-.98,1.2-1.84,1.21h-1.29s-2.55.03-2.55.03l-4.51,9.83c-.53,1.15-.7,1.99-.53,2.53.19.58.83.87,1.9.86.3,0,.62-.03.95-.1.95-.24,1.35.02,1.2.8-.1.69-.58,1.15-1.43,1.37-.98.22-1.82.33-2.52.34Z"/>
      <path class="cls-2" d="m278.52,352.16c-2.45.02-4.12-.78-5.04-2.39-.99-1.7-.84-3.96.46-6.78s3.22-5.11,5.79-6.85c2.39-1.64,4.82-2.46,7.26-2.48,2.47-.02,4.15.78,5.04,2.39.97,1.74.8,4.02-.48,6.83-1.29,2.81-3.21,5.08-5.77,6.8-2.4,1.63-4.82,2.46-7.27,2.47Zm1.13-2.46c1.66-.01,3.28-.64,4.85-1.88,1.58-1.24,2.84-2.88,3.77-4.91s1.17-3.68.72-4.92c-.4-1.25-1.44-1.87-3.12-1.86-1.63.01-3.24.65-4.83,1.91-1.59,1.26-2.85,2.91-3.78,4.94s-1.18,3.67-.74,4.89c.44,1.23,1.48,1.84,3.14,1.82Z"/>
      <path class="cls-2" d="m308.1,358.94c-1.07.01-1.39-.47-.94-1.44l5.08-11.07,5.19-11.33c.37-.8,1.01-1.2,1.91-1.21.84,0,1.14.36.89,1.09l-.27.91h.1c2.92-1.66,5.32-2.5,7.18-2.51,2.4-.01,3.9.79,4.5,2.43.56,1.57.21,3.74-1.07,6.51-1.33,2.9-3.23,5.25-5.69,7.03-2.33,1.68-4.63,2.52-6.92,2.54-1.7.01-3.14-.65-4.31-2.01l-1.35,3.08-2.07,4.51c-.45.97-1.19,1.46-2.24,1.47Zm10.57-9.52c1.61-.01,3.2-.64,4.77-1.88,1.62-1.31,2.92-3.03,3.91-5.17,1.99-4.35,1.32-6.51-2.01-6.49-1.51.01-3.59.83-6.22,2.47l-2.13,4.64-2.11,4.61c1,1.23,2.26,1.83,3.8,1.82Z"/>
    </g>
    <path class="cls-2" d="m326.65,292.8h-124.63c-4.11,0-7.92-1.86-10.44-5.11-2.52-3.25-3.38-7.4-2.36-11.38l13.41-52.36c1.24-4.85,5.04-8.53,9.92-9.62l132.3-29.59c.72-.15,1.44.29,1.6,1.01.16.72-.29,1.43-1.01,1.6l-132.3,29.59c-3.89.87-6.93,3.81-7.91,7.67l-13.41,52.36c-.81,3.18-.13,6.49,1.88,9.08,2.01,2.59,5.05,4.08,8.33,4.08h124.63c.74,0,1.34.6,1.34,1.34s-.6,1.34-1.34,1.34Z"/>
    <g>
      <rect class="cls-2" x="462.51" y="271.02" width="5.47" height="5.47"/>
      <path class="cls-2" d="m256.75,276.7c-9.28,0-15.68-2.63-19.19-7.89-3.62-5.31-3.65-12.42-.07-21.34,3.58-8.92,9.4-16.03,17.48-21.34,7.84-5.21,16.53-7.81,26.07-7.81,7.06,0,12.43,1.91,16.13,5.72.63.72.18,1.57-1.32,2.55-1.59,1.03-2.79,1.08-3.59.15-2.92-2.83-7.18-4.25-12.8-4.25-7.91,0-15.07,2.23-21.5,6.69-6.43,4.46-11.17,10.5-14.23,18.13-3.12,7.78-3.36,13.92-.71,18.4,2.69,4.54,8.02,6.81,15.99,6.81,3.07,0,6.13-.36,9.16-1.08,3.03-.72,5.58-1.7,7.65-2.94l6.79-16.93h-14.11c-1.63,0-2.18-.67-1.64-2.01s1.59-1.93,3.22-1.93h15.78c1.24,0,2.11.28,2.6.85.49.57.54,1.34.15,2.32l-7.13,17.79c-.43,1.08-1.25,1.98-2.46,2.71-6.48,3.61-13.9,5.41-22.26,5.41Z"/>
      <path class="cls-2" d="m310.66,276.7c-5.42,0-9.05-.9-10.88-2.7-1.83-1.8-2-4.55-.51-8.26l6.69-16.68c.41-1.03,1.57-1.55,3.46-1.55s2.63.52,2.22,1.55l-6.54,16.31c-1.19,2.96-1.16,5.12.09,6.49s3.86,2.06,7.85,2.06c2.94,0,5.86-.45,8.77-1.34,2.61-.82,5.86-2.23,9.73-4.23l7.74-19.3c.41-1.03,1.57-1.55,3.47-1.55s2.63.52,2.22,1.55l-5.1,12.72-5.19,12.94c-.34.86-1.33,1.28-2.97,1.28-1.5,0-2.16-.41-1.96-1.23l1-3.47h-.29c-3.51,1.75-6.71,3.05-9.6,3.9-3.41,1-6.81,1.5-10.21,1.5Z"/>
      <path class="cls-2" d="m357.43,275.7c-1.96,0-2.63-.77-2.01-2.32l20.4-50.88c.39-.98,1.06-1.75,2.01-2.32s2.04-.85,3.28-.85h16.86c15.88,0,21.8,5.03,17.77,15.08-1.76,4.38-4.77,7.91-9.05,10.59-4.17,2.58-9.17,4.2-14.99,4.87l7.91,22.81c.7,2.01-.46,3.01-3.47,3.01-1.5,0-2.39-.49-2.64-1.47l-8.32-23.97h-14.6l-9.27,23.12c-.62,1.55-1.91,2.32-3.87,2.32Zm14.69-29.31h13.63c12.81,0,20.81-3.99,24.02-11.98,1.59-3.97,1.08-6.86-1.53-8.66-2.39-1.7-6.79-2.55-13.19-2.55h-13.63l-9.3,23.2Z"/>
      <path class="cls-2" d="m428.09,276.7c-5.42,0-9.05-.9-10.88-2.7-1.83-1.8-2-4.55-.51-8.26l6.69-16.68c.41-1.03,1.57-1.55,3.46-1.55s2.63.52,2.22,1.55l-6.54,16.31c-1.19,2.96-1.16,5.12.09,6.49,1.25,1.37,3.86,2.06,7.85,2.06,2.94,0,5.86-.45,8.77-1.34,2.61-.82,5.86-2.23,9.73-4.23l7.74-19.3c.41-1.03,1.57-1.55,3.47-1.55s2.63.52,2.22,1.55l-5.1,12.72-5.19,12.94c-.34.86-1.33,1.28-2.97,1.28-1.5,0-2.16-.41-1.96-1.23l1-3.47h-.29c-3.51,1.75-6.71,3.05-9.6,3.9-3.41,1-6.81,1.5-10.21,1.5Z"/>
    </g>
    <rect class="cls-2" x="340.97" y="351.3" width="5.47" height="5.47"/>
    <path class="cls-2" d="m324.42,305.43h-150.74c-.99,0-1.78-.8-1.78-1.78s.8-1.78,1.78-1.78h150.74c.99,0,1.78.8,1.78,1.78s-.8,1.78-1.78,1.78Z"/>
  </g>
</svg>