<svg width="366" height="205" viewBox="0 0 366 205" fill="none" xmlns="http://www.w3.org/2000/svg">
<path d="M0 20C0 8.9543 8.9543 0 20 0H122.06V178H20C8.95432 178 0 169.046 0 158V20Z" fill="url(#paint0_linear_5055_14389)"/>
<g clip-path="url(#clip0_5055_14389)">
<path d="M31.4421 113.057H9.53127C8.7968 113.057 8.18017 112.547 8.03218 111.813C7.88419 111.073 8.25691 110.353 8.93931 110.063L36.7945 98.144C37.1508 97.995 37.5618 98.1578 37.7126 98.5164C37.8633 98.8751 37.6989 99.2862 37.3426 99.4407L9.48742 111.36C9.45728 111.374 9.3778 111.407 9.4052 111.534C9.42987 111.65 9.50112 111.65 9.53401 111.65H31.4449C31.8313 111.65 32.1437 111.964 32.1437 112.353C32.1437 112.742 31.8313 113.057 31.4449 113.057H31.4421Z" fill="white"/>
<path d="M37.0669 99.4955C37.0148 99.4955 36.9628 99.49 36.9107 99.4789C36.5352 99.3934 36.2996 99.0154 36.3845 98.6374L41.5203 75.8968C41.8328 74.5835 42.8331 73.5819 44.1294 73.2757L82.4453 64.2037C83.5991 63.9306 84.8022 64.2589 85.6627 65.0811C86.5233 65.9033 86.9097 67.0953 86.6987 68.2706C86.6302 68.6542 86.2602 68.908 85.8847 68.839C85.5038 68.77 85.2517 68.4031 85.3202 68.0196C85.449 67.3022 85.2215 66.6041 84.6981 66.102C84.1746 65.5998 83.4675 65.4067 82.7632 65.575L44.4473 74.6469C43.6662 74.8318 43.066 75.4333 42.8797 76.2196L37.7438 98.9519C37.6698 99.2803 37.3821 99.501 37.0614 99.501L37.0669 99.4955Z" fill="white"/>
<path d="M36.1364 111.978C35.7088 111.978 35.4156 111.87 35.2484 111.644C35.084 111.407 35.095 111.084 35.2813 110.673C35.5088 110.171 35.9308 109.782 36.542 109.506C37.1449 109.235 38.0054 109.039 39.1263 108.915C39.4826 108.134 39.3182 107.745 38.6358 107.751C38.2576 107.751 37.8026 107.867 37.2682 108.093C37.0298 108.203 36.8983 108.162 36.8736 107.974C36.8599 107.883 36.8709 107.812 36.9037 107.754C36.9366 107.696 37.0079 107.641 37.123 107.591C37.8657 107.268 38.5152 107.105 39.0688 107.1C39.6553 107.094 40.0143 107.265 40.1486 107.61C40.2692 107.933 40.1924 108.394 39.9211 108.992L39.2716 110.419L38.7646 111.531C38.6687 111.743 38.5015 111.848 38.2631 111.851C38.0438 111.851 37.9643 111.757 38.0301 111.564L38.1151 111.299H38.0877C37.3121 111.749 36.6626 111.975 36.1364 111.978ZM36.6598 111.352C36.89 111.352 37.1422 111.299 37.4162 111.194C37.6547 111.095 37.9506 110.94 38.3042 110.728L38.6002 110.077L38.8961 109.428C38.0438 109.525 37.397 109.671 36.9558 109.867C36.542 110.052 36.2652 110.3 36.1227 110.612C36.0076 110.863 36.0076 111.054 36.1199 111.183C36.2213 111.296 36.4022 111.352 36.6626 111.349L36.6598 111.352Z" fill="white"/>
<path d="M44.2775 113.76C43.9979 113.76 43.9157 113.634 44.0308 113.38L45.3573 110.463L46.7166 107.478C46.8125 107.268 46.9797 107.161 47.2181 107.161C47.4374 107.161 47.5141 107.255 47.4511 107.448L47.3798 107.688H47.4072C48.1691 107.252 48.7967 107.031 49.2845 107.025C49.9121 107.02 50.304 107.232 50.4602 107.666C50.6055 108.079 50.515 108.651 50.1807 109.382C49.8326 110.143 49.3366 110.761 48.6898 111.233C48.0814 111.675 47.4785 111.898 46.8783 111.901C46.4343 111.904 46.0588 111.73 45.7519 111.374L45.4011 112.185L44.8612 113.374C44.7434 113.631 44.5488 113.76 44.2747 113.76H44.2775ZM47.04 111.252C47.462 111.252 47.8758 111.087 48.2869 110.759C48.7117 110.416 49.0516 109.961 49.3092 109.398C49.8299 108.253 49.6545 107.682 48.783 107.688C48.3856 107.688 47.843 107.906 47.1578 108.339L46.6015 109.561L46.0479 110.775C46.3082 111.098 46.6399 111.258 47.0427 111.252H47.04Z" fill="white"/>
<path d="M56.3068 111.834C55.3613 111.84 55.1229 111.329 55.5943 110.297L56.7672 107.723H56.3369C56.1287 107.729 56.0711 107.629 56.1616 107.431C56.252 107.229 56.4 107.127 56.6055 107.119L57.0906 107.091L57.6141 106.098C57.7264 105.894 57.8936 105.789 58.1211 105.786C58.3595 105.786 58.428 105.894 58.3293 106.109L57.8854 107.086L58.8912 107.077C59.1159 107.077 59.1817 107.179 59.0857 107.389C58.9898 107.599 58.8281 107.706 58.6034 107.709H58.2663L57.5976 107.718L56.4164 110.308C56.2794 110.612 56.2328 110.833 56.2767 110.973C56.3287 111.128 56.4959 111.202 56.7754 111.2C56.8549 111.2 56.9371 111.188 57.0248 111.172C57.2742 111.108 57.3784 111.177 57.34 111.384C57.3126 111.566 57.1893 111.685 56.9645 111.743C56.7069 111.801 56.4877 111.831 56.3041 111.834H56.3068Z" fill="white"/>
<path d="M64.525 111.776C63.8837 111.782 63.4452 111.572 63.2068 111.147C62.9492 110.7 62.9875 110.104 63.3274 109.362C63.6672 108.617 64.1715 108.015 64.8429 107.555C65.4705 107.124 66.1036 106.906 66.7449 106.903C67.3916 106.898 67.8301 107.108 68.0631 107.533C68.3152 107.991 68.2741 108.589 67.9343 109.331C67.5972 110.071 67.0957 110.67 66.427 111.125C65.7994 111.555 65.1635 111.773 64.525 111.776ZM64.821 111.128C65.254 111.128 65.676 110.959 66.0899 110.634C66.5037 110.308 66.8298 109.878 67.0765 109.34C67.3204 108.804 67.3834 108.371 67.2656 108.043C67.1587 107.715 66.8874 107.552 66.4489 107.555C66.0213 107.555 65.602 107.726 65.1855 108.057C64.7689 108.388 64.44 108.824 64.1961 109.359C63.9522 109.894 63.8864 110.325 64.0015 110.648C64.1166 110.97 64.3907 111.13 64.821 111.128Z" fill="white"/>
<path d="M72.2619 113.564C71.9823 113.564 71.9001 113.437 72.0152 113.183L73.3416 110.267L74.701 107.282C74.7969 107.072 74.9641 106.964 75.2025 106.964C75.4217 106.964 75.5012 107.058 75.4354 107.251L75.3642 107.491H75.3916C76.1535 107.055 76.7811 106.835 77.2689 106.829C77.8965 106.824 78.2884 107.036 78.4446 107.469C78.5898 107.883 78.4994 108.454 78.165 109.185C77.817 109.947 77.321 110.565 76.6742 111.037C76.0658 111.478 75.4628 111.702 74.8627 111.705C74.4187 111.707 74.0432 111.533 73.7363 111.178L73.3827 111.989L72.8429 113.178C72.725 113.435 72.5304 113.564 72.2564 113.564H72.2619ZM75.0271 111.056C75.4491 111.053 75.863 110.888 76.2741 110.562C76.6988 110.22 77.0387 109.765 77.2963 109.202C77.817 108.057 77.6416 107.486 76.7701 107.491C76.3727 107.491 75.8301 107.709 75.1422 108.143L74.5859 109.365L74.0323 110.579C74.2926 110.902 74.6242 111.062 75.0271 111.059V111.056Z" fill="white"/>
<path d="M77.0862 96.2232H44.4816C43.4045 96.2232 42.4097 95.7321 41.752 94.8768C41.0915 94.0214 40.8668 92.9288 41.1326 91.8804L44.6405 78.0876C44.9639 76.8129 45.9587 75.8417 47.2359 75.5547L81.8465 67.763C82.0384 67.7188 82.222 67.8402 82.2658 68.0306C82.3069 68.221 82.1891 68.4086 82 68.45L47.3893 76.2417C46.3726 76.4707 45.5778 77.246 45.3202 78.2614L41.8123 92.0542C41.5985 92.8902 41.7794 93.7621 42.3056 94.4436C42.8317 95.1278 43.6265 95.5169 44.4843 95.5169H77.0889C77.2807 95.5169 77.4397 95.6741 77.4397 95.87C77.4397 96.0659 77.2835 96.2232 77.0889 96.2232H77.0862Z" fill="white"/>
<path d="M114.063 90.4863H112.633V91.9266H114.063V90.4863Z" fill="white"/>
<path d="M58.804 91.9849C56.3758 91.9849 54.7041 91.2924 53.786 89.9073C52.8377 88.5084 52.8323 86.635 53.7668 84.287C54.7013 81.939 56.2278 80.0656 58.3381 78.6667C60.388 77.2954 62.6627 76.6084 65.1593 76.6084C67.0065 76.6084 68.4124 77.1106 69.3798 78.1149C69.5443 78.3053 69.4292 78.5287 69.0345 78.7881C68.618 79.0613 68.3055 79.0723 68.0945 78.8295C67.3326 78.0845 66.2145 77.7093 64.7455 77.7093C62.6764 77.7093 60.8018 78.297 59.1219 79.4696C57.4392 80.645 56.2004 82.237 55.3974 84.2456C54.5944 86.2543 54.5177 87.9097 55.2111 89.0906C55.9154 90.2853 57.3076 90.884 59.3932 90.884C60.1962 90.884 60.9964 90.7875 61.7884 90.5998C62.5832 90.4095 63.2492 90.1501 63.7891 89.8245L65.565 85.3658H61.8734C61.4459 85.3658 61.3034 85.1892 61.4431 84.8361C61.5829 84.4829 61.8597 84.3284 62.2872 84.3284H66.4145C66.7379 84.3284 66.9654 84.4029 67.0942 84.5519C67.223 84.7009 67.234 84.905 67.1326 85.1616L65.2662 89.8466C65.1539 90.1308 64.9374 90.3681 64.6222 90.5585C62.9285 91.5076 60.9855 91.9822 58.7985 91.9822L58.804 91.9849Z" fill="white"/>
<path d="M72.907 91.9846C71.4874 91.9846 70.5392 91.7473 70.0623 91.2727C69.5854 90.7981 69.5416 90.0725 69.928 89.0985L71.6792 84.706C71.7889 84.4329 72.0903 84.2977 72.5864 84.2977C73.0824 84.2977 73.277 84.4329 73.1674 84.706L71.4572 88.9992C71.1476 89.7773 71.1558 90.3484 71.4819 90.7099C71.808 91.0713 72.4932 91.2506 73.5346 91.2506C74.3047 91.2506 75.0693 91.132 75.8284 90.8975C76.5136 90.6823 77.3604 90.3098 78.3744 89.7856L80.3997 84.7033C80.5094 84.4301 80.8108 84.2949 81.3069 84.2949C81.8029 84.2949 81.9975 84.4301 81.8879 84.7033L80.5532 88.0528L79.1966 91.4603C79.1062 91.6866 78.8486 91.7997 78.421 91.7997C78.0264 91.7997 77.8565 91.6921 77.9085 91.4769L78.1716 90.5609H78.0949C77.1768 91.0216 76.3382 91.3638 75.5818 91.5873C74.6911 91.8494 73.8004 91.9818 72.9125 91.9818L72.907 91.9846Z" fill="white"/>
<path d="M85.143 91.72C84.6305 91.72 84.4551 91.5158 84.6168 91.1102L89.9554 77.7092C90.0568 77.4526 90.2322 77.2485 90.4816 77.0995C90.731 76.9505 91.016 76.876 91.3394 76.876H95.749C99.9037 76.876 101.452 78.2004 100.397 80.8491C99.9366 82.0024 99.1473 82.9322 98.0291 83.6386C96.9384 84.3173 95.6311 84.745 94.1074 84.9215L96.1765 90.9281C96.3574 91.4579 96.0559 91.7228 95.2694 91.7228C94.8747 91.7228 94.6445 91.5931 94.5787 91.3365L92.4 85.0236H88.5796L86.1542 91.113C85.9925 91.5186 85.6554 91.7228 85.143 91.7228V91.72ZM88.988 84.0028H92.5535C95.9024 84.0028 97.999 82.9515 98.8376 80.8463C99.2542 79.8006 99.1226 79.0391 98.4375 78.5646C97.8126 78.1148 96.6616 77.8913 94.9871 77.8913H91.4216L88.988 84V84.0028Z" fill="white"/>
<path d="M103.626 91.9846C102.206 91.9846 101.258 91.7473 100.781 91.2727C100.304 90.7981 100.26 90.0725 100.647 89.0985L102.398 84.706C102.508 84.4329 102.809 84.2977 103.305 84.2977C103.801 84.2977 103.996 84.4329 103.886 84.706L102.176 88.9992C101.866 89.7773 101.875 90.3484 102.201 90.7099C102.527 91.0713 103.212 91.2506 104.253 91.2506C105.023 91.2506 105.788 91.132 106.547 90.8975C107.232 90.6823 108.079 90.3098 109.093 89.7856L111.118 84.7033C111.228 84.4301 111.53 84.2949 112.026 84.2949C112.522 84.2949 112.716 84.4301 112.607 84.7033L111.272 88.0528L109.915 91.4603C109.825 91.6866 109.567 91.7997 109.14 91.7997C108.745 91.7997 108.575 91.6921 108.627 91.4769L108.89 90.5609H108.814C107.896 91.0216 107.057 91.3638 106.301 91.5873C105.41 91.8494 104.519 91.9818 103.631 91.9818L103.626 91.9846Z" fill="white"/>
<path d="M82.2626 111.633H80.832V113.073H82.2626V111.633Z" fill="white"/>
<path d="M76.5016 99.5533H37.0675C36.8098 99.5533 36.6016 99.3436 36.6016 99.0843C36.6016 98.8249 36.8098 98.6152 37.0675 98.6152H76.5016C76.7592 98.6152 76.9675 98.8249 76.9675 99.0843C76.9675 99.3436 76.7592 99.5533 76.5016 99.5533Z" fill="white"/>
</g>
<path fill-rule="evenodd" clip-rule="evenodd" d="M130.059 0H218.107C221.423 0 224.501 1.99181 226.763 5.31862M226.764 5.31957L236.665 19.86C239.109 23.4478 242.195 25.289 245.272 25.289H355.763C358.772 25.289 361.363 27.231 363.148 30.0726C364.935 32.9181 365.998 36.7707 365.998 40.9564V162.652C365.998 166.838 364.935 170.692 363.147 173.539C361.362 176.382 358.771 178.326 355.763 178.326H352.16C347.888 178.326 343.646 181.019 340.422 186.116L332.496 198.651C329.992 202.61 326.491 205 322.695 205H236.279C231.158 205 226.711 200.696 224.368 194.313L222.346 188.801C219.881 182.081 215.514 178.326 211.102 178.326H130.059V0M132.717 2.98544V175.341H211.102C216.96 175.341 222.09 180.265 224.805 187.663L226.826 193.176C228.921 198.882 232.605 202.015 236.279 202.015H322.695C325.432 202.015 328.196 200.293 330.328 196.922L338.254 184.387C341.85 178.703 346.828 175.341 352.16 175.341H355.763C357.674 175.341 359.536 174.109 360.974 171.819C362.41 169.532 363.34 166.296 363.34 162.652V40.9564C363.34 37.3127 362.41 34.078 360.975 31.7935C359.538 29.5052 357.676 28.2744 355.763 28.2744H245.272C241.189 28.2744 237.381 25.8258 234.553 21.6736L224.651 7.13201L224.65 7.13106C222.774 4.37084 220.419 2.98544 218.107 2.98544H132.717Z" fill="#6158A4"/>
<defs>
<linearGradient id="paint0_linear_5055_14389" x1="122.06" y1="89" x2="0" y2="89" gradientUnits="userSpaceOnUse">
<stop stop-color="#A793E9"/>
<stop offset="0.35" stop-color="#5346B6"/>
<stop offset="0.7" stop-color="#34246D"/>
<stop offset="1" stop-color="#271948"/>
</linearGradient>
<clipPath id="clip0_5055_14389">
<rect width="106.06" height="49.664" fill="white" transform="translate(8 64.168)"/>
</clipPath>
</defs>
</svg>
