<?xml version="1.0" encoding="UTF-8"?>
<svg id="_圖層_1" data-name="圖層 1" xmlns="http://www.w3.org/2000/svg" viewBox="0 0 16 16">
  <defs>
    <style>
      .cls-1 {
        fill: #231815;
        stroke-width: 0px;
      }
    </style>
  </defs>
  <path class="cls-1" d="m3.58,11.58H.3c-.11,0-.2-.08-.22-.18-.02-.11.03-.22.14-.26l4.16-1.77c.05-.02.11,0,.14.06.02.05,0,.11-.06.14L.3,11.32s-.02,0-.01.03c0,.02.01.02.02.02h3.28c.06,0,.1.05.1.1s-.05.1-.1.1Z"/>
  <path class="cls-1" d="m4.42,9.56s-.02,0-.02,0c-.06-.01-.09-.07-.08-.13l.77-3.38c.05-.19.2-.34.39-.39l5.73-1.35c.17-.04.35,0,.48.13.13.12.19.3.15.47-.01.06-.07.09-.12.08-.06-.01-.09-.06-.08-.12.02-.11-.01-.21-.09-.28-.08-.07-.18-.1-.29-.08l-5.73,1.35c-.12.03-.21.12-.23.23l-.77,3.38s-.05.08-.1.08Z"/>
  <g>
    <path class="cls-1" d="m4.27,11.43c-.06,0-.11-.02-.13-.05-.02-.04-.02-.08,0-.14.03-.07.1-.13.19-.17.09-.04.22-.07.39-.09.05-.12.03-.17-.07-.17-.06,0-.12.02-.2.05-.04.02-.05.01-.06-.02,0-.01,0-.02,0-.03,0,0,.02-.02.03-.02.11-.05.21-.07.29-.07.09,0,.14.02.16.08.02.05,0,.12-.03.21l-.1.21-.08.16s-.04.05-.07.05c-.03,0-.04-.01-.03-.04v-.04s0,0,0,0c-.12.07-.21.1-.29.1Zm.08-.09s.07,0,.11-.02c.04-.01.08-.04.13-.07l.04-.1.04-.1c-.13.01-.22.04-.29.07-.06.03-.1.06-.12.11-.02.04-.02.07,0,.08.01.02.04.02.08.02Z"/>
    <path class="cls-1" d="m5.49,11.69s-.05-.02-.04-.06l.2-.43.2-.44s.04-.05.07-.05c.03,0,.04.01.03.04v.04s0,0,0,0c.11-.06.21-.1.28-.1.09,0,.15.03.18.1.02.06,0,.15-.04.25-.05.11-.13.21-.22.27-.09.07-.18.1-.27.1-.07,0-.12-.03-.17-.08l-.05.12-.08.18s-.05.06-.09.06Zm.41-.37c.06,0,.13-.02.19-.07.06-.05.11-.12.15-.2.08-.17.05-.25-.08-.25-.06,0-.14.03-.24.1l-.08.18-.08.18s.09.07.15.07Z"/>
    <path class="cls-1" d="m7.29,11.41c-.14,0-.18-.08-.11-.23l.18-.38h-.06s-.04-.01-.03-.04.04-.05.07-.05h.07s.08-.15.08-.15c.02-.03.04-.05.08-.05.04,0,.05.02.03.05l-.07.14h.15s.04.01.03.05c-.01.03-.04.05-.07.05h-.05s-.1,0-.1,0l-.18.38s-.03.08-.02.1c0,.02.03.03.07.03.01,0,.02,0,.04,0,.04,0,.05,0,.05.03,0,.03-.02.04-.06.05-.04,0-.07.01-.1.01Z"/>
    <path class="cls-1" d="m8.52,11.4c-.1,0-.16-.03-.2-.09-.04-.07-.03-.15.02-.27s.13-.2.23-.27c.09-.06.19-.1.28-.1.1,0,.16.03.2.09.04.07.03.16-.02.27-.05.11-.13.2-.23.27-.09.06-.19.1-.28.1Zm.04-.1c.06,0,.13-.02.19-.07.06-.05.11-.11.15-.19s.05-.14.03-.19c-.02-.05-.06-.07-.12-.07-.06,0-.13.03-.19.07-.06.05-.11.11-.15.19s-.05.14-.03.19c.02.05.06.07.12.07Z"/>
    <path class="cls-1" d="m9.67,11.66s-.05-.02-.04-.06l.2-.43.2-.44s.04-.05.07-.05c.03,0,.04.01.03.04v.04s0,0,0,0c.11-.07.21-.1.28-.1.09,0,.15.03.18.1.02.06,0,.15-.04.25-.05.11-.13.21-.22.27-.09.07-.18.1-.27.1-.07,0-.12-.03-.17-.08l-.05.12-.08.18s-.05.06-.09.06Zm.41-.37c.06,0,.12-.02.19-.07.06-.05.11-.12.15-.2.08-.17.05-.25-.08-.25-.06,0-.14.03-.24.1l-.08.18-.08.18s.09.07.15.07Z"/>
  </g>
  <path class="cls-1" d="m10.4,9.08h-4.87c-.16,0-.31-.07-.41-.2-.1-.13-.13-.29-.09-.45l.52-2.05c.05-.19.2-.33.39-.38l5.17-1.16s.06.01.06.04c0,.03-.01.06-.04.06l-5.17,1.16c-.15.03-.27.15-.31.3l-.52,2.05c-.03.12,0,.25.07.35.08.1.2.16.33.16h4.87s.05.02.05.05-.02.05-.05.05Z"/>
  <g>
    <rect class="cls-1" x="15.71" y="8.22" width=".21" height=".21"/>
    <path class="cls-1" d="m7.67,8.45c-.36,0-.61-.1-.75-.31-.14-.21-.14-.49,0-.83s.37-.63.68-.83c.31-.2.65-.31,1.02-.31.28,0,.49.07.63.22.02.03,0,.06-.05.1-.06.04-.11.04-.14,0-.11-.11-.28-.17-.5-.17-.31,0-.59.09-.84.26-.25.17-.44.41-.56.71s-.13.54-.03.72c.11.18.31.27.63.27.12,0,.24-.01.36-.04.12-.03.22-.07.3-.11l.27-.66h-.55c-.06,0-.09-.03-.06-.08s.06-.08.13-.08h.62s.08.01.1.03c.02.02.02.05,0,.09l-.28.7s-.05.08-.1.11c-.25.14-.54.21-.87.21Z"/>
    <path class="cls-1" d="m9.77,8.45c-.21,0-.35-.04-.43-.11-.07-.07-.08-.18-.02-.32l.26-.65s.06-.06.14-.06.1.02.09.06l-.26.64c-.05.12-.05.2,0,.25s.15.08.31.08c.11,0,.23-.02.34-.05.1-.03.23-.09.38-.17l.3-.75s.06-.06.14-.06.1.02.09.06l-.2.5-.2.51s-.05.05-.12.05c-.06,0-.08-.02-.08-.05l.04-.14h-.01c-.14.07-.26.12-.38.15-.13.04-.27.06-.4.06Z"/>
    <path class="cls-1" d="m11.6,8.41c-.08,0-.1-.03-.08-.09l.8-1.99s.04-.07.08-.09.08-.03.13-.03h.66c.62,0,.85.2.69.59-.07.17-.19.31-.35.41-.16.1-.36.16-.59.19l.31.89c.03.08-.02.12-.14.12-.06,0-.09-.02-.1-.06l-.33-.94h-.57l-.36.9c-.02.06-.07.09-.15.09Zm.57-1.15h.53c.5,0,.81-.16.94-.47.06-.16.04-.27-.06-.34-.09-.07-.27-.1-.52-.1h-.53l-.36.91Z"/>
    <path class="cls-1" d="m14.37,8.45c-.21,0-.35-.04-.43-.11-.07-.07-.08-.18-.02-.32l.26-.65s.06-.06.14-.06.1.02.09.06l-.26.64c-.05.12-.05.2,0,.25s.15.08.31.08c.11,0,.23-.02.34-.05.1-.03.23-.09.38-.17l.3-.75s.06-.06.14-.06.1.02.09.06l-.2.5-.2.51s-.05.05-.12.05c-.06,0-.08-.02-.08-.05l.04-.14h-.01c-.14.07-.26.12-.38.15-.13.04-.27.06-.4.06Z"/>
  </g>
  <rect class="cls-1" x="10.96" y="11.36" width=".21" height=".21"/>
  <path class="cls-1" d="m10.31,9.57h-5.89s-.07-.03-.07-.07.03-.07.07-.07h5.89s.07.03.07.07-.03.07-.07.07Z"/>
</svg>