<svg width="20" height="20" viewBox="0 0 20 20" fill="none" xmlns="http://www.w3.org/2000/svg">
<path fill-rule="evenodd" clip-rule="evenodd" d="M6.05981 0.0600586H13.7598C17.0735 0.0600586 19.7598 2.74635 19.7598 6.06006V13.7601C19.7598 17.0738 17.0735 19.7601 13.7598 19.7601H6.05981C2.74611 19.7601 0.0598145 17.0738 0.0598145 13.7601V6.06006C0.0598145 2.74635 2.74611 0.0600586 6.05981 0.0600586ZM18.2598 6.06006C18.2543 3.57706 16.2428 1.56556 13.7598 1.56006H6.05981C3.57681 1.56556 1.56531 3.57706 1.55981 6.06006V13.7601C1.56531 16.2431 3.57681 18.2546 6.05981 18.2601H13.7598C16.2428 18.2546 18.2543 16.2431 18.2598 13.7601V6.06006Z" fill="white"/>
<path fill-rule="evenodd" clip-rule="evenodd" d="M5.60981 9.91006C5.61531 7.53752 7.53727 5.61556 9.90981 5.61006C12.2824 5.61556 14.2043 7.53752 14.2098 9.91006C14.2098 12.2849 12.2846 14.2101 9.90981 14.2101C7.53499 14.2101 5.60981 12.2849 5.60981 9.91006ZM12.7098 9.91006C12.7098 8.36366 11.4562 7.11006 9.90981 7.11006C8.3657 7.11554 7.1153 8.36594 7.10981 9.91006C7.10981 11.4565 8.36342 12.7101 9.90981 12.7101C11.4562 12.7101 12.7098 11.4565 12.7098 9.91006Z" fill="white"/>
<path d="M13.5698 4.56506C13.5698 3.96583 14.0556 3.48006 14.6548 3.48006C15.254 3.48006 15.7398 3.96583 15.7398 4.56506C15.7398 5.16429 15.254 5.65006 14.6548 5.65006C14.0556 5.65006 13.5698 5.16429 13.5698 4.56506Z" fill="white"/>
</svg>
