<svg width="21" height="20" viewBox="0 0 21 20" fill="none" xmlns="http://www.w3.org/2000/svg">
<g clip-path="url(#clip0_5784_10643)">
<path fill-rule="evenodd" clip-rule="evenodd" d="M6.56054 0.0605469H14.2605C17.5742 0.0605469 20.2605 2.74684 20.2605 6.06055V13.7606C20.2605 17.0743 17.5742 19.7606 14.2605 19.7606H6.56054C3.24684 19.7606 0.560547 17.0743 0.560547 13.7606V6.06055C0.560547 2.74684 3.24684 0.0605469 6.56054 0.0605469ZM18.7605 6.06055C18.755 3.57755 16.7435 1.56605 14.2605 1.56055H6.56054C4.07754 1.56605 2.06604 3.57755 2.06054 6.06055V13.7606C2.06604 16.2436 4.07754 18.2551 6.56054 18.2606H14.2605C16.7435 18.2551 18.755 16.2436 18.7605 13.7606V6.06055Z" fill="#B4B4B4"/>
<path fill-rule="evenodd" clip-rule="evenodd" d="M6.10938 9.91035C6.11487 7.53781 8.03684 5.61585 10.4094 5.61035C12.782 5.61585 14.7039 7.53781 14.7094 9.91035C14.7094 12.2852 12.7842 14.2104 10.4094 14.2104C8.03456 14.2104 6.10938 12.2852 6.10938 9.91035ZM13.2094 9.91035C13.2094 8.36395 11.9558 7.11035 10.4094 7.11035C8.86527 7.11583 7.61486 8.36623 7.60938 9.91035C7.60938 11.4568 8.86299 12.7104 10.4094 12.7104C11.9558 12.7104 13.2094 11.4568 13.2094 9.91035Z" fill="#B4B4B4"/>
<path d="M14.0703 4.56547C14.0703 3.96624 14.5561 3.48047 15.1553 3.48047C15.7545 3.48047 16.2403 3.96624 16.2403 4.56547C16.2403 5.1647 15.7545 5.65047 15.1553 5.65047C14.5561 5.65047 14.0703 5.1647 14.0703 4.56547Z" fill="#B4B4B4"/>
</g>
<defs>
<clipPath id="clip0_5784_10643">
<rect width="20" height="20" fill="white" transform="translate(0.5)"/>
</clipPath>
</defs>
</svg>
