<svg width="21" height="20" viewBox="0 0 21 20" fill="none" xmlns="http://www.w3.org/2000/svg">
<path d="M12.3 7.91H13.3C13.429 7.91003 13.5527 7.85809 13.643 7.76589C13.7333 7.6737 13.7827 7.54903 13.78 7.42V5.82C13.7809 5.56977 13.5893 5.36085 13.34 5.34C13.34 5.34 12.63 5.28 11.76 5.28C9.61998 5.28 8.43998 6.55 8.43998 8.85V10.62H6.46998C6.34185 10.6172 6.21816 10.6669 6.12753 10.7576C6.03691 10.8482 5.98723 10.9719 5.98998 11.1V12.56C5.98723 12.6881 6.03691 12.8118 6.12753 12.9024C6.21816 12.9931 6.34185 13.0428 6.46998 13.04H8.40998V18.7H11.33V13.04H13.09C13.3317 13.0375 13.5355 12.8592 13.57 12.62L13.75 11.16C13.7683 11.0218 13.7244 10.8826 13.63 10.78C13.5384 10.6776 13.4073 10.6194 13.27 10.62H11.33V8.91C11.3297 8.36922 11.7594 7.92622 12.3 7.91Z" fill="white"/>
<path fill-rule="evenodd" clip-rule="evenodd" d="M0.23999 9.91C0.23999 4.43686 4.67685 0 10.15 0C12.7783 0 15.2989 1.04409 17.1574 2.90257C19.0159 4.76106 20.06 7.2817 20.06 9.91C20.06 15.3831 15.6231 19.82 10.15 19.82C4.67685 19.82 0.23999 15.3831 0.23999 9.91ZM18.56 9.91C18.56 5.26529 14.7947 1.5 10.15 1.5C5.50983 1.511 1.75098 5.26985 1.73999 9.91C1.73999 14.5547 5.50527 18.32 10.15 18.32C14.7947 18.32 18.56 14.5547 18.56 9.91Z" fill="white"/>
</svg>
