<svg width="22" height="20" viewBox="0 0 22 20" fill="none" xmlns="http://www.w3.org/2000/svg">
<g clip-path="url(#clip0_5784_10640)">
<path d="M12.8004 7.91027H13.8004C13.9294 7.9103 14.0531 7.85836 14.1434 7.76616C14.2337 7.67397 14.2831 7.5493 14.2804 7.42027V5.82027C14.2813 5.57004 14.0897 5.36112 13.8404 5.34027C13.8404 5.34027 13.1304 5.28027 12.2604 5.28027C10.1203 5.28027 8.94034 6.55027 8.94034 8.85027V10.6203H6.97034C6.84221 10.6175 6.71852 10.6672 6.62789 10.7579C6.53727 10.8485 6.48759 10.9722 6.49034 11.1003V12.5603C6.48759 12.6884 6.53727 12.8121 6.62789 12.9027C6.71852 12.9934 6.84221 13.0431 6.97034 13.0403H8.91034V18.7003H11.8304V13.0403H13.5904C13.8321 13.0378 14.0359 12.8595 14.0704 12.6203L14.2504 11.1603C14.2687 11.0221 14.2248 10.8829 14.1304 10.7803C14.0388 10.6779 13.9077 10.6197 13.7704 10.6203H11.8304V8.91027C11.8301 8.36949 12.2598 7.92649 12.8004 7.91027Z" fill="#B4B4B4"/>
<path fill-rule="evenodd" clip-rule="evenodd" d="M0.740234 9.91C0.740234 4.43686 5.17709 0 10.6502 0C13.2785 0 15.7991 1.04409 17.6576 2.90257C19.5161 4.76106 20.5602 7.2817 20.5602 9.91C20.5602 15.3831 16.1233 19.82 10.6502 19.82C5.17709 19.82 0.740234 15.3831 0.740234 9.91ZM19.0602 9.91C19.0602 5.26529 15.2949 1.5 10.6502 1.5C6.01007 1.511 2.25122 5.26985 2.24023 9.91C2.24023 14.5547 6.00551 18.32 10.6502 18.32C15.2949 18.32 19.0602 14.5547 19.0602 9.91Z" fill="#B4B4B4"/>
</g>
<defs>
<clipPath id="clip0_5784_10640">
<rect width="21" height="20" fill="white" transform="translate(0.5)"/>
</clipPath>
</defs>
</svg>
