<svg width="84" height="39" viewBox="0 0 84 39" fill="none" xmlns="http://www.w3.org/2000/svg">
<g clip-path="url(#clip0_5783_10619)">
<mask id="mask0_5783_10619" style="mask-type:luminance" maskUnits="userSpaceOnUse" x="0" y="0" width="84" height="39">
<path d="M84 0H0V39H84V0Z" fill="white"/>
</mask>
<g mask="url(#mask0_5783_10619)">
<path d="M18.5662 38.3908H1.21277C0.631066 38.3908 0.142695 37.9899 0.0254857 37.4136C-0.0917236 36.8329 0.20347 36.2674 0.743935 36.0399L22.8053 26.68C23.0875 26.563 23.4131 26.6908 23.5324 26.9724C23.6518 27.2541 23.5216 27.5769 23.2394 27.6983L1.17804 37.0583C1.15417 37.0691 1.09122 37.0951 1.11292 37.1948C1.13246 37.2858 1.18889 37.2858 1.21494 37.2858H18.5684C18.8745 37.2858 19.1219 37.5328 19.1219 37.8383C19.1219 38.1438 18.8745 38.3908 18.5684 38.3908H18.5662Z" fill="#9970F9"/>
<path d="M23.021 27.742C22.9797 27.742 22.9385 27.7377 22.8973 27.729C22.5999 27.6618 22.4132 27.365 22.4805 27.0682L26.5481 9.21051C26.7956 8.17918 27.5878 7.39268 28.6145 7.15218L58.9608 0.0281805C59.8746 -0.18632 60.8275 0.0715122 61.5091 0.717179C62.1906 1.36285 62.4966 2.29884 62.3295 3.22184C62.2753 3.52301 61.9822 3.72234 61.6849 3.66818C61.3832 3.61401 61.1835 3.32585 61.2377 3.02468C61.3397 2.46135 61.1596 1.91318 60.745 1.51884C60.3304 1.12451 59.7704 0.972847 59.2126 1.10501L28.8663 8.22901C28.2477 8.37418 27.7723 8.84651 27.6247 9.46401L23.5571 27.3152C23.4985 27.573 23.2706 27.7463 23.0166 27.7463L23.021 27.742Z" fill="#9970F9"/>
<path d="M22.2851 37.5436C21.9465 37.5436 21.7142 37.4591 21.5818 37.2815C21.4516 37.0951 21.4603 36.8416 21.6079 36.5188C21.788 36.1245 22.1223 35.819 22.6063 35.6023C23.0838 35.39 23.7654 35.2361 24.6531 35.1386C24.9353 34.5255 24.8051 34.22 24.2646 34.2243C23.9651 34.2243 23.6048 34.3153 23.1815 34.493C22.9927 34.5796 22.8885 34.5471 22.8689 34.3998C22.8581 34.3283 22.8668 34.272 22.8928 34.2265C22.9189 34.181 22.9753 34.1376 23.0665 34.0986C23.6547 33.8451 24.1691 33.7173 24.6075 33.713C25.072 33.7086 25.3564 33.843 25.4627 34.1138C25.5582 34.3673 25.4975 34.7291 25.2826 35.1993L24.7682 36.3195L24.3666 37.1926C24.2906 37.3595 24.1582 37.4418 23.9694 37.444C23.7958 37.444 23.7328 37.3703 23.7849 37.2186L23.8522 37.0106H23.8305C23.2162 37.3638 22.7018 37.5415 22.2851 37.5436ZM22.6996 37.0518C22.882 37.0518 23.0816 37.0106 23.2987 36.9283C23.4875 36.8503 23.722 36.729 24.002 36.5621L24.2364 36.0508L24.4708 35.5416C23.7958 35.6175 23.2835 35.7323 22.9341 35.8861C22.6063 36.0313 22.3871 36.2263 22.2742 36.4711C22.183 36.6683 22.183 36.8178 22.272 36.9196C22.3523 37.0085 22.4956 37.0518 22.7018 37.0496L22.6996 37.0518Z" fill="#9970F9"/>
<path d="M28.7333 38.9442C28.5119 38.9442 28.4468 38.8445 28.5379 38.6452L29.5885 36.355L30.6651 34.0107C30.741 33.846 30.8734 33.7615 31.0623 33.7615C31.2359 33.7615 31.2967 33.8352 31.2468 33.9869L31.1903 34.1754H31.212C31.8154 33.833 32.3125 33.6597 32.6988 33.6554C33.1959 33.651 33.5063 33.8179 33.63 34.158C33.7451 34.483 33.6734 34.9315 33.4086 35.5057C33.133 36.1037 32.7401 36.589 32.2278 36.9595C31.746 37.3062 31.2685 37.4817 30.7931 37.4839C30.4415 37.486 30.1441 37.3495 29.901 37.07L29.6232 37.707L29.1956 38.6409C29.1023 38.8424 28.9482 38.9442 28.7311 38.9442H28.7333ZM30.9212 36.9747C31.2554 36.9747 31.5832 36.8447 31.9088 36.5869C32.2452 36.3182 32.5144 35.9607 32.7184 35.5187C33.1308 34.6195 32.9919 34.171 32.3016 34.1754C31.9869 34.1754 31.5571 34.3465 31.0145 34.6867L30.5739 35.6465L30.1354 36.5999C30.3416 36.8534 30.6043 36.979 30.9233 36.9747H30.9212Z" fill="#9970F9"/>
<path d="M38.2582 37.4309C37.5093 37.4353 37.3205 37.0344 37.6938 36.2241L38.6228 34.2026H38.2821C38.1171 34.2069 38.0715 34.1289 38.1431 33.9729C38.2148 33.8148 38.332 33.7346 38.4948 33.7281L38.879 33.7064L39.2935 32.9264C39.3825 32.7661 39.5149 32.6838 39.6951 32.6816C39.8839 32.6816 39.9382 32.7661 39.86 32.9351L39.5084 33.7021L40.305 33.6956C40.483 33.6956 40.5351 33.7758 40.4591 33.9404C40.3831 34.1051 40.2551 34.1896 40.0771 34.1918H39.8101L39.2805 34.1983L38.345 36.2328C38.2365 36.4711 38.1996 36.6444 38.2343 36.7549C38.2755 36.8763 38.4079 36.9348 38.6293 36.9326C38.6923 36.9326 38.7574 36.9239 38.8269 36.9109C39.0244 36.8611 39.1069 36.9153 39.0765 37.0778C39.0548 37.2208 38.9571 37.3139 38.7791 37.3594C38.5751 37.4049 38.4014 37.4288 38.256 37.4309H38.2582Z" fill="#9970F9"/>
<path d="M44.7686 37.386C44.2607 37.3903 43.9134 37.2256 43.7246 36.892C43.5206 36.541 43.551 36.0731 43.8201 35.4902C44.0893 34.9052 44.4886 34.4329 45.0204 34.0711C45.5175 33.7331 46.0189 33.5619 46.5268 33.5597C47.039 33.5554 47.3863 33.7201 47.5708 34.0537C47.7705 34.4134 47.7379 34.8836 47.4688 35.4664C47.2018 36.0471 46.8046 36.5172 46.275 36.8747C45.7779 37.2127 45.2744 37.3838 44.7686 37.386ZM45.0031 36.8769C45.346 36.8769 45.6803 36.7446 46.008 36.489C46.3358 36.2333 46.5941 35.8953 46.7894 35.4728C46.9826 35.0525 47.0325 34.7123 46.9392 34.4545C46.8545 34.1966 46.6396 34.0689 46.2924 34.0711C45.9537 34.0711 45.6217 34.2053 45.2917 34.4653C44.9618 34.7253 44.7013 35.0677 44.5082 35.4881C44.315 35.9084 44.2629 36.2463 44.3541 36.4998C44.4452 36.7533 44.6623 36.8791 45.0031 36.8769Z" fill="#9970F9"/>
<path d="M50.8973 38.7899C50.6759 38.7899 50.6108 38.6902 50.702 38.4909L51.7525 36.2007L52.8291 33.8564C52.9051 33.6917 53.0375 33.6072 53.2263 33.6072C53.4 33.6072 53.4629 33.6809 53.4108 33.8326L53.3544 34.0211H53.3761C53.9795 33.6787 54.4766 33.5054 54.8629 33.5011C55.36 33.4967 55.6704 33.6636 55.7941 34.0037C55.9091 34.3287 55.8375 34.7772 55.5727 35.3514C55.297 35.9494 54.9042 36.4347 54.3919 36.8052C53.9101 37.1519 53.4325 37.3274 52.9572 37.3296C52.6056 37.3317 52.3082 37.1952 52.0651 36.9157L51.7851 37.5527L51.3575 38.4866C51.2642 38.6881 51.1101 38.7899 50.893 38.7899H50.8973ZM53.0874 36.8204C53.4217 36.8182 53.7494 36.6882 54.075 36.4326C54.4115 36.1639 54.6806 35.8064 54.8846 35.3644C55.297 34.4652 55.1581 34.0167 54.4679 34.0211C54.1532 34.0211 53.7234 34.1922 53.1786 34.5324L52.738 35.4922L52.2995 36.4456C52.5057 36.6991 52.7683 36.8247 53.0874 36.8226V36.8204Z" fill="#9970F9"/>
<path d="M54.7161 25.1727H28.8931C28.0401 25.1727 27.2522 24.7871 26.7313 24.1154C26.2082 23.4437 26.0302 22.5857 26.2407 21.7624L29.019 10.9312C29.2751 9.9302 30.0631 9.16754 31.0745 8.9422L58.4863 2.82353C58.6382 2.78887 58.7837 2.8842 58.8184 3.0337C58.851 3.1832 58.7576 3.33054 58.6079 3.36304L31.1961 9.4817C30.3908 9.66153 29.7613 10.2704 29.5573 11.0677L26.779 21.8989C26.6097 22.5554 26.753 23.2401 27.1697 23.7752C27.5865 24.3126 28.2159 24.6181 28.8953 24.6181H54.7182C54.8702 24.6181 54.9961 24.7416 54.9961 24.8954C54.9961 25.0492 54.8724 25.1727 54.7182 25.1727H54.7161Z" fill="#9970F9"/>
<path d="M84.0002 20.668H82.8672V21.799H84.0002V20.668Z" fill="#9970F9"/>
<path d="M40.2344 21.8444C38.3113 21.8444 36.9873 21.3005 36.2601 20.2129C35.5091 19.1144 35.5048 17.6432 36.2449 15.7994C36.9851 13.9555 38.1941 12.4844 39.8654 11.3859C41.489 10.309 43.2905 9.76953 45.2679 9.76953C46.7308 9.76953 47.8443 10.1639 48.6105 10.9525C48.7408 11.102 48.6496 11.2775 48.337 11.4812C48.0071 11.6957 47.7597 11.7044 47.5925 11.5137C46.9891 10.9287 46.1036 10.634 44.9401 10.634C43.3014 10.634 41.8167 11.0955 40.4862 12.0164C39.1535 12.9394 38.1724 14.1895 37.5364 15.7669C36.9005 17.3442 36.8397 18.6442 37.3888 19.5715C37.9467 20.5097 39.0493 20.9799 40.7011 20.9799C41.337 20.9799 41.9708 20.904 42.5981 20.7567C43.2276 20.6072 43.755 20.4035 44.1826 20.1479L45.5891 16.6465H42.6654C42.3268 16.6465 42.2139 16.5079 42.3246 16.2305C42.4353 15.9532 42.6546 15.8319 42.9932 15.8319H46.262C46.5181 15.8319 46.6983 15.8904 46.8003 16.0074C46.9023 16.1244 46.911 16.2847 46.8307 16.4862L45.3525 20.1652C45.2636 20.3884 45.0921 20.5747 44.8425 20.7242C43.5011 21.4695 41.9622 21.8422 40.2301 21.8422L40.2344 21.8444Z" fill="#9970F9"/>
<path d="M51.4052 21.8442C50.2808 21.8442 49.5298 21.6579 49.1521 21.2852C48.7745 20.9125 48.7397 20.3427 49.0458 19.5779L50.4328 16.1285C50.5196 15.914 50.7583 15.8079 51.1512 15.8079C51.5441 15.8079 51.6982 15.914 51.6114 16.1285L50.257 19.4999C50.0117 20.1109 50.0182 20.5594 50.2765 20.8432C50.5348 21.127 51.0774 21.2679 51.9022 21.2679C52.5121 21.2679 53.1177 21.1747 53.719 20.9905C54.2616 20.8215 54.9323 20.529 55.7354 20.1174L57.3394 16.1264C57.4263 15.9119 57.665 15.8057 58.0579 15.8057C58.4508 15.8057 58.6049 15.9119 58.518 16.1264L57.461 18.7567L56.3866 21.4325C56.3149 21.6102 56.1109 21.699 55.7723 21.699C55.4597 21.699 55.3252 21.6145 55.3664 21.4455L55.5748 20.7262H55.514C54.7869 21.088 54.1227 21.3567 53.5236 21.5322C52.8182 21.738 52.1128 21.842 51.4095 21.842L51.4052 21.8442Z" fill="#9970F9"/>
<path d="M61.0937 21.6362C60.6878 21.6362 60.5489 21.4759 60.6769 21.1574L64.9051 10.6339C64.9854 10.4324 65.1244 10.272 65.3219 10.155C65.5194 10.038 65.7451 9.97949 66.0013 9.97949H69.4937C72.7842 9.97949 74.0106 11.0195 73.1749 13.0995C72.8103 14.0052 72.1851 14.7354 71.2996 15.29C70.4357 15.823 69.4003 16.1589 68.1935 16.2975L69.8323 21.0144C69.9755 21.4304 69.7368 21.6384 69.1138 21.6384C68.8013 21.6384 68.6189 21.5365 68.5668 21.335L66.8413 16.3777H63.8155L61.8946 21.1595C61.7665 21.478 61.4996 21.6384 61.0937 21.6384V21.6362ZM64.1389 15.576H66.9628C69.6152 15.576 71.2757 14.7505 71.9399 13.0974C72.2698 12.2762 72.1656 11.6782 71.623 11.3055C71.1281 10.9524 70.2165 10.7769 68.8903 10.7769H66.0664L64.1389 15.5739V15.576Z" fill="#9970F9"/>
<path d="M75.7333 21.8442C74.6089 21.8442 73.8579 21.6579 73.4802 21.2852C73.1026 20.9125 73.0678 20.3427 73.3739 19.5779L74.7609 16.1285C74.8477 15.914 75.0864 15.8079 75.4793 15.8079C75.8722 15.8079 76.0263 15.914 75.9395 16.1285L74.585 19.4999C74.3398 20.1109 74.3463 20.5594 74.6046 20.8432C74.8629 21.127 75.4055 21.2679 76.2303 21.2679C76.8402 21.2679 77.4458 21.1747 78.0471 20.9905C78.5897 20.8215 79.2604 20.529 80.0635 20.1174L81.6675 16.1264C81.7543 15.9119 81.9931 15.8057 82.386 15.8057C82.7788 15.8057 82.933 15.9119 82.8461 16.1264L81.7891 18.7567L80.7147 21.4325C80.643 21.6102 80.439 21.699 80.1004 21.699C79.7878 21.699 79.6533 21.6145 79.6945 21.4455L79.9029 20.7262H79.8421C79.115 21.088 78.4508 21.3567 77.8517 21.5322C77.1463 21.738 76.4409 21.842 75.7376 21.842L75.7333 21.8442Z" fill="#9970F9"/>
<path d="M58.8166 37.2734H57.6836V38.4044H58.8166V37.2734Z" fill="#9970F9"/>
<path d="M54.2532 27.7874H23.0213C22.8173 27.7874 22.6523 27.6228 22.6523 27.4191C22.6523 27.2154 22.8173 27.0508 23.0213 27.0508H54.2532C54.4573 27.0508 54.6222 27.2154 54.6222 27.4191C54.6222 27.6228 54.4573 27.7874 54.2532 27.7874Z" fill="#9970F9"/>
</g>
</g>
<defs>
<clipPath id="clip0_5783_10619">
<rect width="84" height="39" fill="white"/>
</clipPath>
</defs>
</svg>
