<svg width="84" height="39" viewBox="0 0 84 39" fill="none" xmlns="http://www.w3.org/2000/svg">
<g clip-path="url(#clip0_44_210)">
<path d="M18.5667 38.3912H1.21326C0.631554 38.3912 0.143183 37.9903 0.025974 37.414C-0.0912353 36.8333 0.203958 36.2678 0.744423 36.0403L22.8058 26.6804C23.088 26.5634 23.4136 26.6912 23.5329 26.9728C23.6523 27.2545 23.5221 27.5773 23.2399 27.6987L1.17853 37.0587C1.15466 37.0695 1.09171 37.0955 1.11341 37.1952C1.13295 37.2862 1.18938 37.2862 1.21543 37.2862H18.5689C18.875 37.2862 19.1224 37.5332 19.1224 37.8387C19.1224 38.1442 18.875 38.3912 18.5689 38.3912H18.5667Z" fill="white"/>
<path d="M23.021 27.742C22.9797 27.742 22.9385 27.7377 22.8973 27.729C22.5999 27.6618 22.4132 27.365 22.4805 27.0682L26.5481 9.21051C26.7956 8.17918 27.5878 7.39268 28.6145 7.15218L58.9608 0.0281804C59.8746 -0.18632 60.8275 0.0715121 61.5091 0.717179C62.1906 1.36285 62.4966 2.29884 62.3295 3.22184C62.2753 3.52301 61.9822 3.72234 61.6849 3.66818C61.3832 3.61401 61.1835 3.32585 61.2377 3.02468C61.3397 2.46135 61.1596 1.91318 60.745 1.51884C60.3304 1.12451 59.7704 0.972847 59.2126 1.10501L28.8663 8.22901C28.2477 8.37418 27.7723 8.84651 27.6247 9.46401L23.5571 27.3152C23.4985 27.573 23.2706 27.7463 23.0166 27.7463L23.021 27.742Z" fill="white"/>
<path d="M22.2851 37.544C21.9465 37.544 21.7142 37.4595 21.5818 37.2819C21.4516 37.0955 21.4603 36.842 21.6079 36.5192C21.788 36.1249 22.1223 35.8194 22.6063 35.6027C23.0838 35.3904 23.7654 35.2365 24.6531 35.139C24.9353 34.5259 24.8051 34.2204 24.2646 34.2247C23.9651 34.2247 23.6048 34.3157 23.1815 34.4934C22.9927 34.58 22.8885 34.5475 22.8689 34.4002C22.8581 34.3287 22.8668 34.2724 22.8928 34.2269C22.9189 34.1814 22.9753 34.138 23.0665 34.099C23.6547 33.8455 24.1691 33.7177 24.6075 33.7134C25.072 33.709 25.3564 33.8434 25.4627 34.1142C25.5582 34.3677 25.4975 34.7295 25.2826 35.1997L24.7682 36.3199L24.3666 37.193C24.2906 37.3599 24.1582 37.4422 23.9694 37.4444C23.7958 37.4444 23.7328 37.3707 23.7849 37.219L23.8522 37.011H23.8305C23.2162 37.3642 22.7018 37.5419 22.2851 37.544ZM22.6996 37.0522C22.882 37.0522 23.0816 37.011 23.2987 36.9287C23.4875 36.8507 23.722 36.7294 24.002 36.5625L24.2364 36.0512L24.4708 35.542C23.7958 35.6179 23.2835 35.7327 22.9341 35.8865C22.6063 36.0317 22.3871 36.2267 22.2742 36.4715C22.183 36.6687 22.183 36.8182 22.272 36.92C22.3523 37.0089 22.4956 37.0522 22.7018 37.05L22.6996 37.0522Z" fill="white"/>
<path d="M28.7338 38.9437C28.5124 38.9437 28.4473 38.844 28.5384 38.6447L29.589 36.3545L30.6656 34.0102C30.7415 33.8455 30.8739 33.761 31.0628 33.761C31.2364 33.761 31.2972 33.8347 31.2473 33.9864L31.1908 34.1749H31.2125C31.8159 33.8325 32.313 33.6592 32.6993 33.6549C33.1964 33.6505 33.5068 33.8174 33.6305 34.1575C33.7456 34.4825 33.6739 34.931 33.4091 35.5052C33.1335 36.1032 32.7406 36.5885 32.2283 36.959C31.7465 37.3057 31.269 37.4812 30.7936 37.4834C30.442 37.4855 30.1446 37.349 29.9015 37.0695L29.6237 37.7065L29.1961 38.6404C29.1028 38.8419 28.9487 38.9437 28.7316 38.9437H28.7338ZM30.9217 36.9742C31.2559 36.9742 31.5837 36.8442 31.9093 36.5864C32.2457 36.3177 32.5149 35.9602 32.7189 35.5182C33.1313 34.619 32.9924 34.1705 32.3021 34.1749C31.9874 34.1749 31.5576 34.346 31.015 34.6862L30.5744 35.646L30.1359 36.5994C30.3421 36.8529 30.6048 36.9785 30.9238 36.9742H30.9217Z" fill="white"/>
<path d="M38.2582 37.4313C37.5093 37.4357 37.3205 37.0348 37.6938 36.2245L38.6228 34.203H38.2821C38.1171 34.2073 38.0715 34.1293 38.1431 33.9733C38.2148 33.8152 38.332 33.735 38.4948 33.7285L38.879 33.7068L39.2935 32.9268C39.3825 32.7665 39.5149 32.6842 39.6951 32.682C39.8839 32.682 39.9382 32.7665 39.86 32.9355L39.5084 33.7025L40.305 33.696C40.483 33.696 40.5351 33.7762 40.4591 33.9408C40.3831 34.1055 40.2551 34.19 40.0771 34.1922H39.8101L39.2805 34.1987L38.345 36.2332C38.2365 36.4715 38.1996 36.6448 38.2343 36.7553C38.2755 36.8767 38.4079 36.9352 38.6293 36.933C38.6923 36.933 38.7574 36.9243 38.8269 36.9113C39.0244 36.8615 39.1069 36.9157 39.0765 37.0782C39.0548 37.2212 38.9571 37.3143 38.7791 37.3598C38.5751 37.4053 38.4014 37.4292 38.256 37.4313H38.2582Z" fill="white"/>
<path d="M44.7696 37.3859C44.2617 37.3902 43.9144 37.2255 43.7256 36.8919C43.5216 36.5409 43.552 36.0729 43.8211 35.49C44.0903 34.905 44.4896 34.4327 45.0214 34.0709C45.5185 33.7329 46.0199 33.5617 46.5278 33.5595C47.04 33.5552 47.3873 33.7199 47.5718 34.0535C47.7715 34.4132 47.7389 34.8834 47.4698 35.4662C47.2028 36.0469 46.8056 36.517 46.276 36.8745C45.7789 37.2125 45.2754 37.3837 44.7696 37.3859ZM45.0041 36.8767C45.347 36.8767 45.6813 36.7445 46.009 36.4889C46.3368 36.2332 46.5951 35.8952 46.7904 35.4727C46.9836 35.0524 47.0335 34.7122 46.9402 34.4544C46.8555 34.1965 46.6406 34.0687 46.2934 34.0709C45.9547 34.0709 45.6227 34.2052 45.2927 34.4652C44.9628 34.7252 44.7023 35.0675 44.5092 35.4879C44.316 35.9082 44.2639 36.2462 44.3551 36.4997C44.4462 36.7532 44.6633 36.8789 45.0041 36.8767Z" fill="white"/>
<path d="M50.8973 38.7899C50.6759 38.7899 50.6108 38.6902 50.702 38.4909L51.7525 36.2007L52.8291 33.8564C52.9051 33.6917 53.0375 33.6072 53.2263 33.6072C53.4 33.6072 53.4629 33.6809 53.4108 33.8326L53.3544 34.0211H53.3761C53.9795 33.6787 54.4766 33.5054 54.8629 33.5011C55.36 33.4967 55.6704 33.6636 55.7941 34.0037C55.9091 34.3287 55.8375 34.7772 55.5727 35.3514C55.297 35.9494 54.9042 36.4347 54.3919 36.8052C53.9101 37.1519 53.4325 37.3274 52.9572 37.3296C52.6056 37.3317 52.3082 37.1952 52.0651 36.9157L51.7851 37.5527L51.3575 38.4866C51.2642 38.6881 51.1101 38.7899 50.893 38.7899H50.8973ZM53.0874 36.8204C53.4217 36.8182 53.7494 36.6882 54.075 36.4326C54.4115 36.1639 54.6806 35.8064 54.8846 35.3644C55.297 34.4652 55.1581 34.0167 54.4679 34.0211C54.1532 34.0211 53.7234 34.1922 53.1786 34.5324L52.738 35.4922L52.2995 36.4456C52.5057 36.6991 52.7683 36.8247 53.0874 36.8226V36.8204Z" fill="white"/>
<path d="M54.7171 25.1723H28.8941C28.0411 25.1723 27.2532 24.7867 26.7323 24.115C26.2092 23.4433 26.0312 22.5853 26.2417 21.762L29.02 10.9308C29.2761 9.92983 30.0641 9.16717 31.0755 8.94183L58.4873 2.82316C58.6392 2.7885 58.7847 2.88383 58.8194 3.03333C58.852 3.18283 58.7586 3.33017 58.6089 3.36267L31.1971 9.48133C30.3918 9.66116 29.7623 10.27 29.5583 11.0673L26.78 21.8985C26.6107 22.555 26.754 23.2397 27.1707 23.7748C27.5875 24.3122 28.2169 24.6177 28.8963 24.6177H54.7192C54.8712 24.6177 54.9971 24.7412 54.9971 24.895C54.9971 25.0488 54.8734 25.1723 54.7192 25.1723H54.7171Z" fill="white"/>
<path d="M84.0002 20.6678H82.8672V21.7988H84.0002V20.6678Z" fill="white"/>
<path d="M40.2354 21.8444C38.3123 21.8444 36.9883 21.3005 36.2611 20.2129C35.5101 19.1144 35.5058 17.6432 36.2459 15.7994C36.9861 13.9555 38.1951 12.4844 39.8664 11.3859C41.49 10.309 43.2915 9.76953 45.2689 9.76953C46.7318 9.76953 47.8453 10.1639 48.6115 10.9525C48.7418 11.102 48.6506 11.2775 48.338 11.4812C48.0081 11.6957 47.7607 11.7044 47.5935 11.5137C46.9901 10.9287 46.1046 10.634 44.9411 10.634C43.3024 10.634 41.8177 11.0955 40.4872 12.0164C39.1545 12.9394 38.1734 14.1895 37.5374 15.7669C36.9015 17.3442 36.8407 18.6442 37.3898 19.5715C37.9477 20.5097 39.0503 20.9799 40.7021 20.9799C41.338 20.9799 41.9718 20.904 42.5991 20.7567C43.2286 20.6072 43.756 20.4035 44.1836 20.1479L45.5901 16.6465H42.6664C42.3278 16.6465 42.2149 16.5079 42.3256 16.2305C42.4363 15.9532 42.6556 15.8319 42.9942 15.8319H46.263C46.5191 15.8319 46.6993 15.8904 46.8013 16.0074C46.9033 16.1244 46.912 16.2847 46.8317 16.4862L45.3535 20.1652C45.2646 20.3884 45.0931 20.5747 44.8435 20.7242C43.5021 21.4695 41.9632 21.8422 40.2311 21.8422L40.2354 21.8444Z" fill="white"/>
<path d="M51.4052 21.8444C50.2808 21.8444 49.5298 21.6581 49.1521 21.2854C48.7745 20.9127 48.7397 20.3429 49.0458 19.5781L50.4328 16.1287C50.5196 15.9142 50.7583 15.8081 51.1512 15.8081C51.5441 15.8081 51.6982 15.9142 51.6114 16.1287L50.257 19.5001C50.0117 20.1111 50.0182 20.5596 50.2765 20.8434C50.5348 21.1272 51.0774 21.2681 51.9022 21.2681C52.5121 21.2681 53.1177 21.1749 53.719 20.9907C54.2616 20.8217 54.9323 20.5292 55.7354 20.1176L57.3394 16.1266C57.4263 15.9121 57.665 15.8059 58.0579 15.8059C58.4508 15.8059 58.6049 15.9121 58.518 16.1266L57.461 18.7569L56.3866 21.4327C56.3149 21.6104 56.1109 21.6992 55.7723 21.6992C55.4597 21.6992 55.3252 21.6147 55.3664 21.4457L55.5748 20.7264H55.514C54.7869 21.0882 54.1227 21.3569 53.5236 21.5324C52.8182 21.7382 52.1128 21.8422 51.4095 21.8422L51.4052 21.8444Z" fill="white"/>
<path d="M61.0942 21.6364C60.6883 21.6364 60.5494 21.4761 60.6774 21.1576L64.9056 10.6341C64.9859 10.4326 65.1249 10.2722 65.3224 10.1552C65.5199 10.0382 65.7456 9.97974 66.0018 9.97974H69.4942C72.7847 9.97974 74.0111 11.0197 73.1754 13.0997C72.8108 14.0054 72.1856 14.7356 71.3001 15.2902C70.4362 15.8232 69.4008 16.1591 68.194 16.2977L69.8328 21.0146C69.976 21.4306 69.7373 21.6386 69.1143 21.6386C68.8018 21.6386 68.6194 21.5367 68.5673 21.3352L66.8418 16.3779H63.816L61.8951 21.1597C61.767 21.4782 61.5001 21.6386 61.0942 21.6386V21.6364ZM64.1394 15.5762H66.9633C69.6157 15.5762 71.2762 14.7507 71.9404 13.0976C72.2703 12.2764 72.1661 11.6784 71.6235 11.3057C71.1286 10.9526 70.217 10.7771 68.8908 10.7771H66.0669L64.1394 15.5741V15.5762Z" fill="white"/>
<path d="M75.7348 21.8444C74.6104 21.8444 73.8594 21.6581 73.4817 21.2854C73.1041 20.9127 73.0693 20.3429 73.3754 19.5781L74.7624 16.1287C74.8492 15.9142 75.0879 15.8081 75.4808 15.8081C75.8737 15.8081 76.0278 15.9142 75.941 16.1287L74.5865 19.5001C74.3413 20.1111 74.3478 20.5596 74.6061 20.8434C74.8644 21.1272 75.407 21.2681 76.2318 21.2681C76.8417 21.2681 77.4473 21.1749 78.0486 20.9907C78.5912 20.8217 79.2619 20.5292 80.065 20.1176L81.669 16.1266C81.7558 15.9121 81.9946 15.8059 82.3875 15.8059C82.7803 15.8059 82.9345 15.9121 82.8476 16.1266L81.7906 18.7569L80.7162 21.4327C80.6445 21.6104 80.4405 21.6992 80.1019 21.6992C79.7893 21.6992 79.6548 21.6147 79.696 21.4457L79.9044 20.7264H79.8436C79.1165 21.0882 78.4523 21.3569 77.8532 21.5324C77.1478 21.7382 76.4424 21.8422 75.7391 21.8422L75.7348 21.8444Z" fill="white"/>
<path d="M58.8176 37.2732H57.6846V38.4042H58.8176V37.2732Z" fill="white"/>
<path d="M54.2547 27.7874H23.0228C22.8188 27.7874 22.6538 27.6228 22.6538 27.4191C22.6538 27.2154 22.8188 27.0508 23.0228 27.0508H54.2547C54.4588 27.0508 54.6237 27.2154 54.6237 27.4191C54.6237 27.6228 54.4588 27.7874 54.2547 27.7874Z" fill="white"/>
</g>
<defs>
<clipPath id="clip0_44_210">
<rect width="84" height="39" fill="white"/>
</clipPath>
</defs>
</svg>
