<svg width="172" height="70" viewBox="0 0 172 70" fill="none" xmlns="http://www.w3.org/2000/svg">
<mask id="path-1-inside-1_4694_17395" fill="white">
<path d="M0 0H172V69.6429H0V0Z"/>
</mask>
<path d="M171 0V69.6429H173V0H171Z" fill="#B4B4B4" mask="url(#path-1-inside-1_4694_17395)"/>
<g clip-path="url(#clip0_4694_17395)">
<path d="M33.154 68.5559H2.16566C1.1269 68.5559 0.254813 67.8401 0.0455102 66.8109C-0.163792 65.774 0.363339 64.7642 1.32845 64.3579L40.7238 47.6437C41.2277 47.4347 41.8091 47.663 42.0223 48.166C42.2354 48.669 42.0029 49.2454 41.499 49.4621L2.10365 66.1764C2.06101 66.1957 1.94861 66.2422 1.98737 66.4202C2.02225 66.5827 2.12303 66.5826 2.16954 66.5826H33.1579C33.7044 66.5826 34.1463 67.0237 34.1463 67.5693C34.1463 68.1148 33.7044 68.5559 33.1579 68.5559H33.154Z" fill="black"/>
<path d="M41.1068 49.5392C41.0332 49.5392 40.9595 49.5315 40.8859 49.516C40.3549 49.3961 40.0215 48.866 40.1417 48.336L47.4053 16.4473C47.8471 14.6056 49.2618 13.2011 51.0952 12.7717L105.285 0.0502523C106.917 -0.332783 108.618 0.12763 109.835 1.28061C111.053 2.43358 111.599 4.10501 111.301 5.75322C111.204 6.29102 110.68 6.64697 110.149 6.55025C109.611 6.45352 109.254 5.93894 109.351 5.40115C109.533 4.39519 109.211 3.41632 108.471 2.71215C107.731 2.00799 106.731 1.73716 105.735 1.97317L51.5448 14.6946C50.4401 14.9538 49.5913 15.7973 49.3277 16.9L42.0642 48.777C41.9595 49.2375 41.5525 49.547 41.0991 49.547L41.1068 49.5392Z" fill="black"/>
<path d="M39.7943 67.0428C39.1897 67.0428 38.7749 66.8919 38.5385 66.5747C38.306 66.2419 38.3215 65.7892 38.585 65.2127C38.9067 64.5086 39.5036 63.963 40.368 63.5761C41.2207 63.197 42.4377 62.9223 44.023 62.7482C44.5269 61.6532 44.2943 61.1077 43.3292 61.1154C42.7943 61.1154 42.1509 61.2779 41.3951 61.5952C41.0579 61.75 40.8719 61.6919 40.837 61.4288C40.8176 61.3011 40.8331 61.2005 40.8796 61.1193C40.9261 61.038 41.0269 60.9607 41.1897 60.891C42.2401 60.4383 43.1587 60.2101 43.9416 60.2023C44.7711 60.1946 45.2788 60.4345 45.4688 60.9181C45.6393 61.3708 45.5308 62.0169 45.147 62.8565L44.2284 64.8568L43.5114 66.416C43.3757 66.7139 43.1393 66.861 42.8021 66.8648C42.492 66.8648 42.3796 66.7333 42.4726 66.4624L42.5928 66.091H42.554C41.4571 66.7217 40.5385 67.0389 39.7943 67.0428ZM40.5346 66.1645C40.8602 66.1645 41.2168 66.091 41.6044 65.944C41.9416 65.8047 42.3602 65.588 42.8602 65.2901L43.2788 64.377L43.6974 63.4678C42.492 63.6032 41.5773 63.8083 40.9532 64.083C40.368 64.3422 39.9765 64.6904 39.775 65.1276C39.6122 65.4797 39.6122 65.7467 39.7711 65.9285C39.9145 66.0871 40.1703 66.1645 40.5385 66.1607L40.5346 66.1645Z" fill="black"/>
<path d="M51.3107 69.5421C50.9153 69.5421 50.7991 69.3642 50.9618 69.0082L52.8378 64.9186L54.7603 60.7323C54.896 60.4383 55.1324 60.2874 55.4696 60.2874C55.7797 60.2874 55.8882 60.4189 55.7991 60.6898L55.6983 61.0264H55.737C56.8146 60.4151 57.7022 60.1055 58.3921 60.0978C59.2797 60.0901 59.8339 60.388 60.0549 60.9954C60.2603 61.5758 60.1324 62.3767 59.6595 63.402C59.1673 64.4698 58.4657 65.3365 57.551 65.9981C56.6905 66.6171 55.8378 66.9305 54.989 66.9344C54.3611 66.9383 53.8301 66.6945 53.396 66.1954L52.8998 67.3329L52.1363 69.0005C51.9696 69.3603 51.6944 69.5421 51.3068 69.5421H51.3107ZM55.2177 66.0252C55.8146 66.0252 56.3998 65.793 56.9812 65.3326C57.582 64.8529 58.0626 64.2145 58.427 63.4252C59.1634 61.8195 58.9153 61.0186 57.6828 61.0264C57.1208 61.0264 56.3533 61.332 55.3843 61.9395L54.5975 63.6535L53.8146 65.3558C54.1828 65.8085 54.6518 66.0329 55.2215 66.0252H55.2177Z" fill="black"/>
<path d="M68.3165 66.8413C66.9793 66.849 66.6421 66.1333 67.3088 64.6862L68.9677 61.0764H68.3591C68.0646 61.0842 67.9832 60.9449 68.1111 60.6663C68.239 60.3839 68.4483 60.2407 68.739 60.2291L69.425 60.1904L70.1653 58.7976C70.3243 58.5112 70.5607 58.3642 70.8824 58.3604C71.2196 58.3604 71.3165 58.5112 71.177 58.813L70.5491 60.1827L71.9715 60.1711C72.2894 60.1711 72.3824 60.3142 72.2467 60.6083C72.1111 60.9023 71.8824 61.0532 71.5646 61.0571H71.0878L70.1421 61.0687L68.4715 64.7017C68.2777 65.1273 68.2118 65.4368 68.2739 65.6342C68.3475 65.8508 68.5839 65.9553 68.9793 65.9514C69.0917 65.9514 69.208 65.9359 69.332 65.9127C69.6847 65.8237 69.832 65.9205 69.7777 66.2107C69.739 66.466 69.5646 66.6324 69.2467 66.7136C68.8824 66.7949 68.5723 66.8374 68.3126 66.8413H68.3165Z" fill="black"/>
<path d="M79.9453 66.7596C79.0383 66.7674 78.4182 66.4733 78.0809 65.8775C77.7166 65.2507 77.7709 64.415 78.2515 63.3742C78.7321 62.3296 79.4453 61.4861 80.3949 60.84C81.2825 60.2364 82.1778 59.9308 83.0848 59.9269C83.9995 59.9192 84.6197 60.2132 84.9492 60.809C85.3058 61.4513 85.2476 62.2909 84.767 63.3317C84.2903 64.3686 83.5809 65.2082 82.6352 65.8465C81.7476 66.4501 80.8484 66.7558 79.9453 66.7596ZM80.3639 65.8504C80.9763 65.8504 81.5732 65.6144 82.1585 65.1579C82.7437 64.7013 83.205 64.0977 83.5538 63.3433C83.8988 62.5927 83.9879 61.9852 83.8213 61.5248C83.6701 61.0644 83.2864 60.8361 82.6662 60.84C82.0616 60.84 81.4685 61.0799 80.8794 61.5442C80.2903 62.0085 79.8251 62.6198 79.4802 63.3704C79.1352 64.121 79.0422 64.7245 79.205 65.1772C79.3678 65.6299 79.7554 65.8543 80.3639 65.8504Z" fill="black"/>
<path d="M90.8888 69.2668C90.4935 69.2668 90.3772 69.0888 90.54 68.7328L92.4159 64.6432L94.3384 60.4569C94.4741 60.1629 94.7105 60.012 95.0477 60.012C95.3578 60.012 95.4702 60.1435 95.3772 60.4144L95.2764 60.751H95.3152C96.3927 60.1397 97.2803 59.8302 97.9702 59.8224C98.8578 59.8147 99.4121 60.1126 99.633 60.72C99.8384 61.3004 99.7105 62.1013 99.2376 63.1266C98.7454 64.1944 98.0438 65.0611 97.1291 65.7227C96.2687 66.3418 95.4159 66.6552 94.5671 66.659C93.9392 66.6629 93.4082 66.4191 92.9741 65.92L92.4741 67.0575L91.7105 68.7251C91.5438 69.0849 91.2687 69.2668 90.8811 69.2668H90.8888ZM94.7997 65.7498C95.3966 65.7459 95.9818 65.5138 96.5632 65.0572C97.164 64.5775 97.6446 63.9391 98.009 63.1498C98.7454 61.5441 98.4973 60.7432 97.2648 60.751C96.7028 60.751 95.9353 61.0566 94.9625 61.6641L94.1756 63.3781L93.3927 65.0804C93.7609 65.5331 94.2299 65.7575 94.7997 65.7537V65.7498Z" fill="black"/>
<path d="M97.7103 44.9503H51.5978C50.0746 44.9503 48.6676 44.2616 47.7374 43.0622C46.8033 41.8628 46.4854 40.3306 46.8614 38.8604L51.8227 19.519C52.28 17.7315 53.687 16.3696 55.4932 15.9672L104.443 5.04104C104.714 4.97914 104.974 5.14938 105.036 5.41634C105.094 5.6833 104.927 5.9464 104.66 6.00444L55.7102 16.9306C54.2723 17.2518 53.1482 18.339 52.7839 19.7628L47.8227 39.1041C47.5203 40.2765 47.7761 41.4991 48.5203 42.4547C49.2645 43.4143 50.3885 43.9598 51.6017 43.9598H97.7141C97.9854 43.9598 98.2103 44.1803 98.2103 44.455C98.2103 44.7297 97.9893 44.9503 97.7141 44.9503H97.7103Z" fill="black"/>
<path d="M150 36.9062H147.977V38.9259H150V36.9062Z" fill="black"/>
<path d="M71.8473 39.0075C68.4132 39.0075 66.0489 38.0364 64.7504 36.0941C63.4094 34.1325 63.4016 31.5054 64.7233 28.2129C66.045 24.9203 68.2039 22.2932 71.1884 20.3316C74.0877 18.4087 77.3047 17.4453 80.8357 17.4453C83.4481 17.4453 85.4365 18.1495 86.8047 19.5578C87.0373 19.8248 86.8745 20.1382 86.3163 20.5019C85.7272 20.8849 85.2853 20.9004 84.9869 20.5599C83.9093 19.5153 82.328 18.9891 80.2504 18.9891C77.3241 18.9891 74.6729 19.8132 72.297 21.4575C69.9171 23.1057 68.1652 25.3382 67.0295 28.1548C65.8939 30.9715 65.7853 33.2929 66.7659 34.9489C67.7621 36.6242 69.7311 37.4638 72.6807 37.4638C73.8163 37.4638 74.9481 37.3283 76.0683 37.0653C77.1923 36.7983 78.1342 36.4346 78.8977 35.9781L81.4094 29.7257H76.1884C75.5838 29.7257 75.3822 29.4781 75.5799 28.9828C75.7776 28.4876 76.169 28.2709 76.7737 28.2709H82.6109C83.0683 28.2709 83.39 28.3754 83.5721 28.5843C83.7543 28.7932 83.7698 29.0795 83.6264 29.4394L80.9869 36.009C80.828 36.4075 80.5218 36.7403 80.076 37.0072C77.6807 38.3382 74.9326 39.0036 71.8396 39.0036L71.8473 39.0075Z" fill="black"/>
<path d="M91.7919 39.0076C89.7841 39.0076 88.443 38.6749 87.7686 38.0094C87.0942 37.344 87.0322 36.3264 87.5787 34.9606L90.0554 28.8011C90.2105 28.4181 90.6368 28.2285 91.3384 28.2285C92.0399 28.2285 92.3151 28.4181 92.1601 28.8011L89.7415 34.8213C89.3035 35.9124 89.3151 36.7133 89.7764 37.2202C90.2376 37.727 91.2066 37.9785 92.6795 37.9785C93.7686 37.9785 94.85 37.8121 95.9237 37.4832C96.8926 37.1815 98.0903 36.6591 99.5244 35.924L102.389 28.7972C102.544 28.4142 102.97 28.2246 103.672 28.2246C104.373 28.2246 104.648 28.4142 104.493 28.7972L102.606 33.4943L100.687 38.2725C100.559 38.5898 100.195 38.7484 99.5903 38.7484C99.0322 38.7484 98.7919 38.5975 98.8655 38.2957L99.2376 37.0112H99.1291C97.8306 37.6574 96.6446 38.1371 95.5748 38.4505C94.3151 38.8181 93.0554 39.0038 91.7996 39.0038L91.7919 39.0076Z" fill="black"/>
<path d="M109.096 38.6358C108.371 38.6358 108.123 38.3495 108.352 37.7807L115.902 18.9888C116.046 18.6289 116.294 18.3426 116.646 18.1337C116.999 17.9248 117.402 17.8203 117.86 17.8203H124.096C129.972 17.8203 132.162 19.6775 130.67 23.3917C130.018 25.009 128.902 26.3129 127.321 27.3034C125.778 28.2551 123.929 28.8548 121.774 29.1025L124.701 37.5254C124.956 38.2682 124.53 38.6397 123.418 38.6397C122.86 38.6397 122.534 38.4578 122.441 38.098L119.36 29.2456H113.956L110.526 37.7846C110.298 38.3534 109.821 38.6397 109.096 38.6397V38.6358ZM114.534 27.8141H119.577C124.313 27.8141 127.278 26.34 128.464 23.3879C129.053 21.9215 128.867 20.8536 127.898 20.1882C127.015 19.5575 125.387 19.2441 123.018 19.2441H117.976L114.534 27.8102V27.8141Z" fill="black"/>
<path d="M135.237 39.0076C133.229 39.0076 131.888 38.6749 131.214 38.0094C130.54 37.344 130.477 36.3264 131.024 34.9606L133.501 28.8011C133.656 28.4181 134.082 28.2285 134.784 28.2285C135.485 28.2285 135.76 28.4181 135.605 28.8011L133.187 34.8213C132.749 35.9124 132.76 36.7133 133.222 37.2202C133.683 37.727 134.652 37.9785 136.125 37.9785C137.214 37.9785 138.295 37.8121 139.369 37.4832C140.338 37.1815 141.536 36.6591 142.97 35.924L145.834 28.7972C145.989 28.4142 146.415 28.2246 147.117 28.2246C147.819 28.2246 148.094 28.4142 147.939 28.7972L146.051 33.4943L144.133 38.2725C144.005 38.5898 143.64 38.7484 143.036 38.7484C142.478 38.7484 142.237 38.5975 142.311 38.2957L142.683 37.0112H142.574C141.276 37.6574 140.09 38.1371 139.02 38.4505C137.76 38.8181 136.501 39.0038 135.245 39.0038L135.237 39.0076Z" fill="black"/>
<path d="M105.031 66.5596H103.008V68.5792H105.031V66.5596Z" fill="black"/>
<path d="M96.8834 49.6202H41.112C40.7477 49.6202 40.4531 49.3261 40.4531 48.9624C40.4531 48.5987 40.7477 48.3047 41.112 48.3047H96.8834C97.2477 48.3047 97.5423 48.5987 97.5423 48.9624C97.5423 49.3261 97.2477 49.6202 96.8834 49.6202Z" fill="black"/>
</g>
<defs>
<clipPath id="clip0_4694_17395">
<rect width="150" height="69.6429" fill="white"/>
</clipPath>
</defs>
</svg>
