<svg width="25" height="26" viewBox="0 0 25 26" fill="none" xmlns="http://www.w3.org/2000/svg">
<circle cx="12.5" cy="12.5833" r="12.5" fill="#805AF5"/>
<path d="M20 19.875C20 18.6539 20 18.0434 19.8493 17.5465C19.51 16.4279 18.6346 15.5525 17.516 15.2132C17.0191 15.0625 16.4086 15.0625 15.1875 15.0625H10.8125C9.59138 15.0625 8.98082 15.0625 8.484 15.2132C7.36539 15.5525 6.49003 16.4279 6.15071 17.5465C6 18.0434 6 18.6539 6 19.875M16.9375 8.0625C16.9375 10.2371 15.1746 12 13 12C10.8254 12 9.0625 10.2371 9.0625 8.0625C9.0625 5.88788 10.8254 4.125 13 4.125C15.1746 4.125 16.9375 5.88788 16.9375 8.0625Z" stroke="white" stroke-linecap="round" stroke-linejoin="round"/>
</svg>
